<svg xmlns="http://www.w3.org/2000/svg" width="25" height="25" viewBox="0 0 25 25"><defs><style>.a{fill:#a0a0a0;}</style></defs><path class="a" d="M0,12.507a12.5,12.5,0,0,1,25-.014v.014a12.5,12.5,0,0,1-25,0Zm13.336,0L17.7,8.143a.568.568,0,0,0,0-.809l-.027-.026a.568.568,0,0,0-.809,0L12.5,11.684,8.134,7.308a.568.568,0,0,0-.809,0L7.3,7.334a.568.568,0,0,0,0,.809l4.366,4.377L7.3,16.884a.568.568,0,0,0,0,.809l.027.027a.568.568,0,0,0,.809,0L12.5,13.355l4.366,4.364a.568.568,0,0,0,.809,0l.027-.027a.568.568,0,0,0,0-.809l-4.366-4.377Z"/></svg>